# xmcd CD database file
#
# Track frame offsets:
#	150
#	15492
#	31255
#
# Disc length: 584 seconds
#
# Revision: 0
# Processed by: cddbd v1.5.1PL0 Copyright (c) Steve Scherf et al.
# Submitted via: CDex 1.51
#
DISCID=15024603
DTITLE=ゼリ→ - おもちゃのピストル
DYEAR=1999
DGENRE=JPop
TTITLE0=おもちゃのピストル
TTITLE1=Drug Is Dead
TTITLE2=Silver Fox Falls Into A Pitfall
EXTD=YEAR: 1999
EXTT0=
EXTT1=
EXTT2=
PLAYORDER=
